<svg xmlns="http://www.w3.org/2000/svg" xmlns:xlink="http://www.w3.org/1999/xlink" width="500" zoomAndPan="magnify" viewBox="0 0 375 374.999991" height="500" preserveAspectRatio="xMidYMid meet" version="1.0"><defs><g/><clipPath id="6852788f3f"><path d="M 128.273438 71.765625 L 246.734375 71.765625 L 246.734375 215.015625 L 128.273438 215.015625 Z M 128.273438 71.765625 " clip-rule="nonzero"/></clipPath></defs><rect x="-37.5" width="450" fill="#ffffff" y="-37.499999" height="449.999989" fill-opacity="1"/><g clip-path="url(#6852788f3f)"><path fill="#93c5fd" d="M 230.628906 130.625 C 230.628906 156.828125 206.894531 178.09375 177.621094 178.09375 C 164.046875 178.09375 151.105469 173.789062 140.371094 165.523438 C 137.386719 163.199219 134.601562 160.644531 132.277344 157.777344 C 135.203125 167.648438 139.652344 177.207031 145.652344 185.671875 C 155.066406 199.046875 168.152344 209.777344 184.425781 215.261719 L 184.425781 193.277344 C 184.425781 191.582031 185.800781 190.207031 187.496094 190.207031 C 203.851562 190.207031 218.691406 183.546875 229.425781 172.816406 C 240.101562 162.082031 246.730469 147.328125 246.730469 130.972656 C 246.730469 114.613281 240.070312 99.804688 229.394531 89.070312 C 218.664062 78.421875 203.851562 71.765625 187.496094 71.765625 C 171.136719 71.765625 156.386719 78.421875 145.652344 89.070312 C 134.917969 99.804688 128.261719 114.640625 128.261719 131 C 128.261719 132.175781 128.347656 133.410156 128.347656 134.644531 C 129.523438 144.863281 135.492188 153.988281 144.1875 160.644531 C 145.222656 161.449219 146.3125 162.167969 147.402344 162.914062 L 147.402344 125.144531 C 147.402344 114.984375 152.082031 105.800781 159.511719 99.144531 C 166.890625 92.570312 177.046875 88.46875 188.296875 88.46875 C 196.621094 88.46875 204.511719 90.734375 211.144531 94.753906 C 217.800781 98.828125 223.109375 104.625 226.269531 111.683594 C 227.644531 114.613281 228.765625 117.742188 229.480469 120.8125 C 230.285156 124.054688 230.628906 127.328125 230.628906 130.625 Z M 230.628906 130.625 " fill-opacity="1" fill-rule="nonzero"/></g><path fill="#93c5fd" d="M 177.621094 171.894531 C 203.480469 171.894531 224.429688 153.414062 224.429688 130.625 C 224.429688 127.785156 224.058594 125 223.484375 122.304688 C 222.824219 119.519531 221.875 116.824219 220.640625 114.269531 L 220.554688 114.183594 C 218.003906 108.328125 213.46875 103.449219 207.929688 100.089844 C 202.304688 96.648438 195.445312 94.695312 188.296875 94.695312 C 178.65625 94.695312 169.902344 98.195312 163.617188 103.765625 C 157.476562 109.21875 153.601562 116.824219 153.601562 125.144531 L 153.601562 166.414062 C 160.890625 169.828125 169.214844 171.894531 177.621094 171.894531 Z M 176.761719 140.125 C 175.671875 140.558594 174.496094 140.84375 173.261719 140.84375 C 168.066406 140.84375 163.902344 136.597656 163.902344 131.488281 C 163.902344 126.292969 168.066406 122.132812 173.261719 122.132812 C 178.367188 122.132812 182.617188 126.292969 182.617188 131.488281 C 182.617188 133.46875 181.957031 135.277344 180.921875 136.824219 C 180.78125 135.21875 179.402344 133.984375 177.792969 133.984375 C 176.042969 133.984375 174.582031 135.363281 174.582031 137.113281 C 174.550781 138.519531 175.5 139.753906 176.761719 140.125 Z M 201.789062 140.84375 C 196.59375 140.84375 192.429688 136.597656 192.429688 131.488281 C 192.429688 126.292969 196.59375 122.132812 201.789062 122.132812 C 206.980469 122.132812 211.144531 126.292969 211.144531 131.488281 C 211.144531 133.46875 210.570312 135.277344 209.449219 136.824219 C 209.304688 135.21875 207.929688 133.984375 206.320312 133.984375 C 204.570312 133.984375 203.195312 135.363281 203.195312 137.113281 C 203.195312 138.492188 204.082031 139.753906 205.375 140.097656 C 204.285156 140.558594 203.050781 140.84375 201.789062 140.84375 Z M 201.789062 140.84375 " fill-opacity="1" fill-rule="nonzero"/><g fill="#93c5fd" fill-opacity="1"><g transform="translate(100.139931, 265.329984)"><g><path d="M 10.234375 0 C 9.847656 0 9.585938 -0.1875 9.453125 -0.5625 L 1.21875 -27.640625 C 1.1875 -27.691406 1.171875 -27.773438 1.171875 -27.890625 C 1.171875 -28.242188 1.375 -28.421875 1.78125 -28.421875 L 6.5 -28.421875 C 6.875 -28.421875 7.128906 -28.226562 7.265625 -27.84375 L 12.578125 -8.28125 C 12.609375 -8.175781 12.664062 -8.125 12.75 -8.125 C 12.832031 -8.125 12.882812 -8.175781 12.90625 -8.28125 L 18.140625 -27.8125 C 18.273438 -28.21875 18.535156 -28.421875 18.921875 -28.421875 L 23.5 -28.421875 C 23.75 -28.421875 23.925781 -28.34375 24.03125 -28.1875 C 24.132812 -28.039062 24.148438 -27.859375 24.078125 -27.640625 L 15.703125 -0.5625 C 15.566406 -0.1875 15.3125 0 14.9375 0 Z M 10.234375 0 "/></g></g></g><g fill="#93c5fd" fill-opacity="1"><g transform="translate(125.381307, 265.329984)"><g><path d="M 10.46875 -21.1875 C 12.226562 -21.1875 13.796875 -20.878906 15.171875 -20.265625 C 16.554688 -19.660156 17.632812 -18.832031 18.40625 -17.78125 C 19.175781 -16.726562 19.5625 -15.550781 19.5625 -14.25 L 19.5625 -0.6875 C 19.5625 -0.226562 19.332031 0 18.875 0 L 14.53125 0 C 14.070312 0 13.84375 -0.226562 13.84375 -0.6875 L 13.84375 -1.671875 C 13.84375 -1.773438 13.816406 -1.832031 13.765625 -1.84375 C 13.710938 -1.863281 13.644531 -1.832031 13.5625 -1.75 C 12.3125 -0.363281 10.457031 0.328125 8 0.328125 C 5.914062 0.328125 4.238281 -0.1875 2.96875 -1.21875 C 1.695312 -2.25 1.0625 -3.765625 1.0625 -5.765625 C 1.0625 -7.847656 1.789062 -9.460938 3.25 -10.609375 C 4.707031 -11.765625 6.789062 -12.34375 9.5 -12.34375 L 13.59375 -12.34375 C 13.757812 -12.34375 13.84375 -12.421875 13.84375 -12.578125 L 13.84375 -13.4375 C 13.84375 -14.332031 13.5625 -15.03125 13 -15.53125 C 12.445312 -16.03125 11.644531 -16.28125 10.59375 -16.28125 C 9.78125 -16.28125 9.109375 -16.144531 8.578125 -15.875 C 8.054688 -15.601562 7.703125 -15.222656 7.515625 -14.734375 C 7.347656 -14.359375 7.078125 -14.179688 6.703125 -14.203125 L 2.1875 -14.78125 C 1.976562 -14.800781 1.8125 -14.859375 1.6875 -14.953125 C 1.5625 -15.046875 1.515625 -15.175781 1.546875 -15.34375 C 1.679688 -16.457031 2.144531 -17.457031 2.9375 -18.34375 C 3.738281 -19.238281 4.796875 -19.9375 6.109375 -20.4375 C 7.421875 -20.9375 8.875 -21.1875 10.46875 -21.1875 Z M 9.65625 -3.9375 C 10.820312 -3.9375 11.8125 -4.25 12.625 -4.875 C 13.4375 -5.5 13.84375 -6.296875 13.84375 -7.265625 L 13.84375 -8.6875 C 13.84375 -8.851562 13.757812 -8.9375 13.59375 -8.9375 L 10.71875 -8.9375 C 9.5 -8.9375 8.535156 -8.703125 7.828125 -8.234375 C 7.128906 -7.773438 6.78125 -7.128906 6.78125 -6.296875 C 6.78125 -5.566406 7.039062 -4.988281 7.5625 -4.5625 C 8.09375 -4.144531 8.789062 -3.9375 9.65625 -3.9375 Z M 9.65625 -3.9375 "/></g></g></g><g fill="#93c5fd" fill-opacity="1"><g transform="translate(146.808066, 265.329984)"><g><path d="M 12.5 -21.15625 C 13.363281 -21.15625 14.082031 -20.988281 14.65625 -20.65625 C 14.976562 -20.5 15.097656 -20.21875 15.015625 -19.8125 L 14.25 -15.546875 C 14.21875 -15.304688 14.140625 -15.15625 14.015625 -15.09375 C 13.898438 -15.039062 13.707031 -15.039062 13.4375 -15.09375 C 13 -15.207031 12.609375 -15.265625 12.265625 -15.265625 C 12.066406 -15.265625 11.753906 -15.238281 11.328125 -15.1875 C 10.347656 -15.101562 9.519531 -14.742188 8.84375 -14.109375 C 8.164062 -13.472656 7.828125 -12.625 7.828125 -11.5625 L 7.828125 -0.6875 C 7.828125 -0.226562 7.597656 0 7.140625 0 L 2.796875 0 C 2.335938 0 2.109375 -0.226562 2.109375 -0.6875 L 2.109375 -20.171875 C 2.109375 -20.628906 2.335938 -20.859375 2.796875 -20.859375 L 7.140625 -20.859375 C 7.597656 -20.859375 7.828125 -20.628906 7.828125 -20.171875 L 7.828125 -18.921875 C 7.828125 -18.804688 7.851562 -18.734375 7.90625 -18.703125 C 7.96875 -18.679688 8.039062 -18.710938 8.125 -18.796875 C 9.207031 -20.367188 10.664062 -21.15625 12.5 -21.15625 Z M 12.5 -21.15625 "/></g></g></g><g fill="#93c5fd" fill-opacity="1"><g transform="translate(162.350586, 265.329984)"><g><path d="M 14.09375 -16.96875 C 14.09375 -16.507812 13.859375 -16.28125 13.390625 -16.28125 L 9.75 -16.28125 C 9.582031 -16.28125 9.5 -16.195312 9.5 -16.03125 L 9.5 -7.625 C 9.5 -6.738281 9.679688 -6.082031 10.046875 -5.65625 C 10.410156 -5.238281 11 -5.03125 11.8125 -5.03125 L 12.953125 -5.03125 C 13.410156 -5.03125 13.640625 -4.800781 13.640625 -4.34375 L 13.640625 -0.859375 C 13.640625 -0.421875 13.410156 -0.175781 12.953125 -0.125 C 11.921875 -0.0703125 11.175781 -0.046875 10.71875 -0.046875 C 8.46875 -0.046875 6.785156 -0.421875 5.671875 -1.171875 C 4.566406 -1.929688 4.003906 -3.34375 3.984375 -5.40625 L 3.984375 -16.03125 C 3.984375 -16.195312 3.898438 -16.28125 3.734375 -16.28125 L 1.671875 -16.28125 C 1.203125 -16.28125 0.96875 -16.507812 0.96875 -16.96875 L 0.96875 -20.171875 C 0.96875 -20.628906 1.203125 -20.859375 1.671875 -20.859375 L 3.734375 -20.859375 C 3.898438 -20.859375 3.984375 -20.941406 3.984375 -21.109375 L 3.984375 -25.703125 C 3.984375 -26.160156 4.210938 -26.390625 4.671875 -26.390625 L 8.8125 -26.390625 C 9.269531 -26.390625 9.5 -26.160156 9.5 -25.703125 L 9.5 -21.109375 C 9.5 -20.941406 9.582031 -20.859375 9.75 -20.859375 L 13.390625 -20.859375 C 13.859375 -20.859375 14.09375 -20.628906 14.09375 -20.171875 Z M 14.09375 -16.96875 "/></g></g></g><g fill="#93c5fd" fill-opacity="1"><g transform="translate(177.771356, 265.329984)"><g><path d="M 10.46875 -21.1875 C 12.226562 -21.1875 13.796875 -20.878906 15.171875 -20.265625 C 16.554688 -19.660156 17.632812 -18.832031 18.40625 -17.78125 C 19.175781 -16.726562 19.5625 -15.550781 19.5625 -14.25 L 19.5625 -0.6875 C 19.5625 -0.226562 19.332031 0 18.875 0 L 14.53125 0 C 14.070312 0 13.84375 -0.226562 13.84375 -0.6875 L 13.84375 -1.671875 C 13.84375 -1.773438 13.816406 -1.832031 13.765625 -1.84375 C 13.710938 -1.863281 13.644531 -1.832031 13.5625 -1.75 C 12.3125 -0.363281 10.457031 0.328125 8 0.328125 C 5.914062 0.328125 4.238281 -0.1875 2.96875 -1.21875 C 1.695312 -2.25 1.0625 -3.765625 1.0625 -5.765625 C 1.0625 -7.847656 1.789062 -9.460938 3.25 -10.609375 C 4.707031 -11.765625 6.789062 -12.34375 9.5 -12.34375 L 13.59375 -12.34375 C 13.757812 -12.34375 13.84375 -12.421875 13.84375 -12.578125 L 13.84375 -13.4375 C 13.84375 -14.332031 13.5625 -15.03125 13 -15.53125 C 12.445312 -16.03125 11.644531 -16.28125 10.59375 -16.28125 C 9.78125 -16.28125 9.109375 -16.144531 8.578125 -15.875 C 8.054688 -15.601562 7.703125 -15.222656 7.515625 -14.734375 C 7.347656 -14.359375 7.078125 -14.179688 6.703125 -14.203125 L 2.1875 -14.78125 C 1.976562 -14.800781 1.8125 -14.859375 1.6875 -14.953125 C 1.5625 -15.046875 1.515625 -15.175781 1.546875 -15.34375 C 1.679688 -16.457031 2.144531 -17.457031 2.9375 -18.34375 C 3.738281 -19.238281 4.796875 -19.9375 6.109375 -20.4375 C 7.421875 -20.9375 8.875 -21.1875 10.46875 -21.1875 Z M 9.65625 -3.9375 C 10.820312 -3.9375 11.8125 -4.25 12.625 -4.875 C 13.4375 -5.5 13.84375 -6.296875 13.84375 -7.265625 L 13.84375 -8.6875 C 13.84375 -8.851562 13.757812 -8.9375 13.59375 -8.9375 L 10.71875 -8.9375 C 9.5 -8.9375 8.535156 -8.703125 7.828125 -8.234375 C 7.128906 -7.773438 6.78125 -7.128906 6.78125 -6.296875 C 6.78125 -5.566406 7.039062 -4.988281 7.5625 -4.5625 C 8.09375 -4.144531 8.789062 -3.9375 9.65625 -3.9375 Z M 9.65625 -3.9375 "/></g></g></g><g fill="#93c5fd" fill-opacity="1"><g transform="translate(199.198115, 265.329984)"><g><path d="M 2.875 0 C 2.414062 0 2.1875 -0.226562 2.1875 -0.6875 L 2.1875 -27.71875 C 2.1875 -28.1875 2.414062 -28.421875 2.875 -28.421875 L 7.21875 -28.421875 C 7.6875 -28.421875 7.921875 -28.1875 7.921875 -27.71875 L 7.921875 -0.6875 C 7.921875 -0.226562 7.6875 0 7.21875 0 Z M 2.875 0 "/></g></g></g><g fill="#93c5fd" fill-opacity="1"><g transform="translate(209.302784, 265.329984)"><g><path d="M 10.46875 -21.1875 C 12.226562 -21.1875 13.796875 -20.878906 15.171875 -20.265625 C 16.554688 -19.660156 17.632812 -18.832031 18.40625 -17.78125 C 19.175781 -16.726562 19.5625 -15.550781 19.5625 -14.25 L 19.5625 -0.6875 C 19.5625 -0.226562 19.332031 0 18.875 0 L 14.53125 0 C 14.070312 0 13.84375 -0.226562 13.84375 -0.6875 L 13.84375 -1.671875 C 13.84375 -1.773438 13.816406 -1.832031 13.765625 -1.84375 C 13.710938 -1.863281 13.644531 -1.832031 13.5625 -1.75 C 12.3125 -0.363281 10.457031 0.328125 8 0.328125 C 5.914062 0.328125 4.238281 -0.1875 2.96875 -1.21875 C 1.695312 -2.25 1.0625 -3.765625 1.0625 -5.765625 C 1.0625 -7.847656 1.789062 -9.460938 3.25 -10.609375 C 4.707031 -11.765625 6.789062 -12.34375 9.5 -12.34375 L 13.59375 -12.34375 C 13.757812 -12.34375 13.84375 -12.421875 13.84375 -12.578125 L 13.84375 -13.4375 C 13.84375 -14.332031 13.5625 -15.03125 13 -15.53125 C 12.445312 -16.03125 11.644531 -16.28125 10.59375 -16.28125 C 9.78125 -16.28125 9.109375 -16.144531 8.578125 -15.875 C 8.054688 -15.601562 7.703125 -15.222656 7.515625 -14.734375 C 7.347656 -14.359375 7.078125 -14.179688 6.703125 -14.203125 L 2.1875 -14.78125 C 1.976562 -14.800781 1.8125 -14.859375 1.6875 -14.953125 C 1.5625 -15.046875 1.515625 -15.175781 1.546875 -15.34375 C 1.679688 -16.457031 2.144531 -17.457031 2.9375 -18.34375 C 3.738281 -19.238281 4.796875 -19.9375 6.109375 -20.4375 C 7.421875 -20.9375 8.875 -21.1875 10.46875 -21.1875 Z M 9.65625 -3.9375 C 10.820312 -3.9375 11.8125 -4.25 12.625 -4.875 C 13.4375 -5.5 13.84375 -6.296875 13.84375 -7.265625 L 13.84375 -8.6875 C 13.84375 -8.851562 13.757812 -8.9375 13.59375 -8.9375 L 10.71875 -8.9375 C 9.5 -8.9375 8.535156 -8.703125 7.828125 -8.234375 C 7.128906 -7.773438 6.78125 -7.128906 6.78125 -6.296875 C 6.78125 -5.566406 7.039062 -4.988281 7.5625 -4.5625 C 8.09375 -4.144531 8.789062 -3.9375 9.65625 -3.9375 Z M 9.65625 -3.9375 "/></g></g></g><g fill="#93c5fd" fill-opacity="1"><g transform="translate(230.729544, 265.329984)"><g><path d="M 10.46875 -21.1875 C 12.226562 -21.1875 13.796875 -20.878906 15.171875 -20.265625 C 16.554688 -19.660156 17.632812 -18.832031 18.40625 -17.78125 C 19.175781 -16.726562 19.5625 -15.550781 19.5625 -14.25 L 19.5625 -0.6875 C 19.5625 -0.226562 19.332031 0 18.875 0 L 14.53125 0 C 14.070312 0 13.84375 -0.226562 13.84375 -0.6875 L 13.84375 -1.671875 C 13.84375 -1.773438 13.816406 -1.832031 13.765625 -1.84375 C 13.710938 -1.863281 13.644531 -1.832031 13.5625 -1.75 C 12.3125 -0.363281 10.457031 0.328125 8 0.328125 C 5.914062 0.328125 4.238281 -0.1875 2.96875 -1.21875 C 1.695312 -2.25 1.0625 -3.765625 1.0625 -5.765625 C 1.0625 -7.847656 1.789062 -9.460938 3.25 -10.609375 C 4.707031 -11.765625 6.789062 -12.34375 9.5 -12.34375 L 13.59375 -12.34375 C 13.757812 -12.34375 13.84375 -12.421875 13.84375 -12.578125 L 13.84375 -13.4375 C 13.84375 -14.332031 13.5625 -15.03125 13 -15.53125 C 12.445312 -16.03125 11.644531 -16.28125 10.59375 -16.28125 C 9.78125 -16.28125 9.109375 -16.144531 8.578125 -15.875 C 8.054688 -15.601562 7.703125 -15.222656 7.515625 -14.734375 C 7.347656 -14.359375 7.078125 -14.179688 6.703125 -14.203125 L 2.1875 -14.78125 C 1.976562 -14.800781 1.8125 -14.859375 1.6875 -14.953125 C 1.5625 -15.046875 1.515625 -15.175781 1.546875 -15.34375 C 1.679688 -16.457031 2.144531 -17.457031 2.9375 -18.34375 C 3.738281 -19.238281 4.796875 -19.9375 6.109375 -20.4375 C 7.421875 -20.9375 8.875 -21.1875 10.46875 -21.1875 Z M 9.65625 -3.9375 C 10.820312 -3.9375 11.8125 -4.25 12.625 -4.875 C 13.4375 -5.5 13.84375 -6.296875 13.84375 -7.265625 L 13.84375 -8.6875 C 13.84375 -8.851562 13.757812 -8.9375 13.59375 -8.9375 L 10.71875 -8.9375 C 9.5 -8.9375 8.535156 -8.703125 7.828125 -8.234375 C 7.128906 -7.773438 6.78125 -7.128906 6.78125 -6.296875 C 6.78125 -5.566406 7.039062 -4.988281 7.5625 -4.5625 C 8.09375 -4.144531 8.789062 -3.9375 9.65625 -3.9375 Z M 9.65625 -3.9375 "/></g></g></g><g fill="#93c5fd" fill-opacity="1"><g transform="translate(252.156303, 265.329984)"><g><path d="M 20.78125 -15.21875 C 21.238281 -13.925781 21.46875 -12.300781 21.46875 -10.34375 C 21.46875 -8.34375 21.210938 -6.664062 20.703125 -5.3125 C 20.109375 -3.582031 19.125 -2.203125 17.75 -1.171875 C 16.382812 -0.148438 14.785156 0.359375 12.953125 0.359375 C 10.953125 0.359375 9.410156 -0.300781 8.328125 -1.625 C 8.265625 -1.707031 8.195312 -1.734375 8.125 -1.703125 C 8.0625 -1.679688 8.03125 -1.613281 8.03125 -1.5 L 8.03125 6.859375 C 8.03125 7.316406 7.800781 7.546875 7.34375 7.546875 L 3 7.546875 C 2.539062 7.546875 2.3125 7.316406 2.3125 6.859375 L 2.3125 -20.171875 C 2.3125 -20.628906 2.539062 -20.859375 3 -20.859375 L 7.34375 -20.859375 C 7.800781 -20.859375 8.03125 -20.628906 8.03125 -20.171875 L 8.03125 -19.078125 C 8.03125 -18.972656 8.0625 -18.910156 8.125 -18.890625 C 8.195312 -18.878906 8.265625 -18.914062 8.328125 -19 C 9.429688 -20.457031 10.972656 -21.1875 12.953125 -21.1875 C 14.785156 -21.1875 16.410156 -20.640625 17.828125 -19.546875 C 19.253906 -18.453125 20.238281 -17.007812 20.78125 -15.21875 Z M 14.484375 -6.203125 C 15.140625 -7.285156 15.46875 -8.707031 15.46875 -10.46875 C 15.46875 -12.070312 15.179688 -13.398438 14.609375 -14.453125 C 13.960938 -15.617188 12.976562 -16.203125 11.65625 -16.203125 C 10.457031 -16.203125 9.535156 -15.617188 8.890625 -14.453125 C 8.347656 -13.453125 8.078125 -12.113281 8.078125 -10.4375 C 8.078125 -8.675781 8.363281 -7.28125 8.9375 -6.25 C 9.613281 -5.195312 10.519531 -4.671875 11.65625 -4.671875 C 12.894531 -4.671875 13.835938 -5.179688 14.484375 -6.203125 Z M 14.484375 -6.203125 "/></g></g></g></svg>