<svg width="100.40000000000003" height="54.11936058788297" viewBox="0 0 369.9130434782609 99.16120455399475" class="looka-1j8o68f"><defs id="SvgjsDefs1173"></defs><g id="SvgjsG1174" featurekey="HKaMnE-0" transform="matrix(0.8821983581870717,0,0,0.8821983581870717,4.3441143353962115,22.184360220693893)" fill="#00adb5"><path xmlns="http://www.w3.org/2000/svg" d="M46.227,29.455H27.663v2.579c0.463,0.635,1.079,1.359,1.864,2.279c1.093,1.284,2.443,2.87,3.914,4.934h12.786V29.455z"></path><rect xmlns="http://www.w3.org/2000/svg" x="57.893" y="16.794" width="18.563" height="9.793"></rect><rect xmlns="http://www.w3.org/2000/svg" x="48.611" y="29.455" width="18.563" height="10"></rect><rect xmlns="http://www.w3.org/2000/svg" x="57.893" y="42.116" width="18.563" height="10"></rect><rect xmlns="http://www.w3.org/2000/svg" x="78.841" y="16.794" width="9.282" height="9.793"></rect><rect xmlns="http://www.w3.org/2000/svg" x="78.841" y="42.116" width="9.282" height="10"></rect><path xmlns="http://www.w3.org/2000/svg" d="M55.506,42.116H36.944v2.775c1.341,2.548,2.21,4.896,2.741,7.017h15.821V42.116z"></path><rect xmlns="http://www.w3.org/2000/svg" x="69.561" y="29.455" width="18.563" height="10"></rect><rect xmlns="http://www.w3.org/2000/svg" x="48.611" y="54.775" width="18.563" height="9.793"></rect><rect xmlns="http://www.w3.org/2000/svg" x="69.561" y="54.775" width="18.563" height="9.793"></rect><rect xmlns="http://www.w3.org/2000/svg" x="36.944" y="16.794" width="18.562" height="9.793"></rect><path xmlns="http://www.w3.org/2000/svg" d="M39.264,63.945c-0.024,0.063-0.05,0.123-0.078,0.185c-0.006,0.013-0.016,0.033-0.025,0.052  c-0.082,0.184-0.148,0.313-0.188,0.387h7.251v-9.791h-5.992C40.833,59.432,39.818,62.629,39.264,63.945z"></path><path xmlns="http://www.w3.org/2000/svg" d="M23.04,22.346c1.162-0.43,2.468-0.152,3.358,0.712c0.889,0.863,1.203,2.161,0.808,3.336  c-0.022,0.065-0.043,0.129-0.064,0.193h7.417v-9.793H15.996v9.793h1.472C19.263,24.314,21.455,22.931,23.04,22.346z"></path><path xmlns="http://www.w3.org/2000/svg" d="M33.315,44.979C26.728,33.711,21.313,33.8,24.154,25.366c0,0-7.457,2.752-6.569,12.251c0,0,0.3,2.276-1.271,4.601  c0,0,0.649-5.045-4.056-9.661c0,0,1.953,2.841-1.864,8.079c-3.683,5.054-8.222,6.83-8.483,14.548l-0.034-0.008  c0,0.285,0.008,0.57,0.022,0.854c0,0.009,0,0.016,0,0.023S1.9,56.07,1.9,56.08c0.001,0.021,0.002,0.042,0.003,0.064  c0.004,0.123,0.013,0.248,0.029,0.373c0.687,9.33,8.469,16.688,17.977,16.688c7.12,0,13.274-4.127,16.205-10.118  c0.001-0.001,0.002-0.002,0.003-0.003c0,0,0.051-0.093,0.127-0.266c0.007-0.016,0.015-0.029,0.022-0.047h-0.002  C36.896,61.32,39.085,54.85,33.315,44.979z M14.689,65.248c-5.859-4.171-3.527-10.521,1.424-13.16c7.33-3.906,6.178-7.99,6.178-7.99  s4.293,5.981,5.091,13.47C28.181,65.055,20.549,69.419,14.689,65.248z"></path></g><g id="SvgjsG1175" featurekey="J3GnXt-0" transform="matrix(3.331464843244117,0,0,3.331464843244117,95.2670768448892,13.742451183712813)" fill="#00adb5"><path d="M2.3 10.52 l2.84 7.26 l2.72 -7.26 l1.92 0 l-3.72 9.48 l-1.98 0 l-3.86 -9.48 l2.08 0 z M15.16 10.28 c1.2 0 2.15 0.27328 2.85 0.81994 s1.07 1.3067 1.11 2.28 l0 5.08 c0 0.48 0.02666 0.99334 0.08 1.54 l-1.6 0 c-0.04 -0.42666 -0.06 -0.90666 -0.06 -1.44 l-0.04 0 c-0.41334 0.61334 -0.89 1.0467 -1.43 1.3 s-1.17 0.38 -1.89 0.38 c-0.97334 0 -1.7633 -0.26 -2.37 -0.78 s-0.91 -1.2067 -0.91 -2.06 c0 -1.08 0.45334 -1.8967 1.36 -2.45 s2.1866 -0.83 3.84 -0.83 l1.34 0 l0 -0.34 c0 -0.64 -0.21 -1.1433 -0.63 -1.51 s-0.97 -0.55 -1.65 -0.55 c-0.50666 0 -0.95 0.07666 -1.33 0.23 s-0.83 0.43668 -1.35 0.85002 l-1.08 -1.12 c1.0267 -0.90666 2.28 -1.3733 3.76 -1.4 z M12.7 17.259999999999998 c0 1.0267 0.68002 1.54 2.04 1.54 c0.81334 0 1.4633 -0.24334 1.95 -0.73 s0.73666 -1.19 0.75 -2.11 l0 -0.52 l-1.02 0 c-1.1733 0 -2.0866 0.15 -2.74 0.45 s-0.98 0.75666 -0.98 1.37 z M26.42 10.28 c0.33334 0 0.6 0.04 0.8 0.12 l-0.08 1.94 c-0.34666 -0.09334 -0.64666 -0.14 -0.9 -0.14 c-1.7733 0 -2.6734 0.98666 -2.7 2.96 l0 4.84 l-1.8 0 l0 -9.48 l1.8 0 l0 1.46 l0.04 0 c0.24 -0.50666 0.62666 -0.91666 1.16 -1.23 s1.0933 -0.47 1.68 -0.47 z M31.64 7.859999999999999 l-0.000019531 2.66 l2.58 0 l0 1.56 l-2.58 0 l0 4.56 c0 0.61334 0.08666 1.0867 0.26 1.42 s0.54 0.5 1.1 0.5 c0.53334 0 0.96 -0.09334 1.28 -0.28 l0 1.64 c-0.34666 0.18666 -0.89332 0.29332 -1.64 0.31998 c-0.72 0 -1.2767 -0.11 -1.67 -0.33 s-0.68 -0.52666 -0.86 -0.92 s-0.27 -1.01 -0.27 -1.85 l0 -5.06 l-2.08 0 l0 -1.56 l2.08 0 l0 -2.66 l1.8 0 z M40.34 10.28 c1.2 0 2.15 0.27328 2.85 0.81994 s1.07 1.3067 1.11 2.28 l0 5.08 c0 0.48 0.02666 0.99334 0.08 1.54 l-1.6 0 c-0.04 -0.42666 -0.06 -0.90666 -0.06 -1.44 l-0.04 0 c-0.41334 0.61334 -0.89 1.0467 -1.43 1.3 s-1.17 0.38 -1.89 0.38 c-0.97334 0 -1.7633 -0.26 -2.37 -0.78 s-0.91 -1.2067 -0.91 -2.06 c0 -1.08 0.45334 -1.8967 1.36 -2.45 s2.1866 -0.83 3.84 -0.83 l1.34 0 l0 -0.34 c0 -0.64 -0.21 -1.1433 -0.63 -1.51 s-0.97 -0.55 -1.65 -0.55 c-0.50666 0 -0.95 0.07666 -1.33 0.23 s-0.83 0.43668 -1.35 0.85002 l-1.08 -1.12 c1.0267 -0.90666 2.28 -1.3733 3.76 -1.4 z M37.88 17.259999999999998 c0 1.0267 0.68002 1.54 2.04 1.54 c0.81334 0 1.4633 -0.24334 1.95 -0.73 s0.73666 -1.19 0.75 -2.11 l0 -0.52 l-1.02 0 c-1.1733 0 -2.0866 0.15 -2.74 0.45 s-0.98 0.75666 -0.98 1.37 z M48.86 4.880000000000001 l0 15.12 l-1.8 0 l0 -15.12 l1.8 0 z M55.519999999999996 10.28 c1.2 0 2.15 0.27328 2.85 0.81994 s1.07 1.3067 1.11 2.28 l0 5.08 c0 0.48 0.02666 0.99334 0.08 1.54 l-1.6 0 c-0.04 -0.42666 -0.06 -0.90666 -0.06 -1.44 l-0.04 0 c-0.41334 0.61334 -0.89 1.0467 -1.43 1.3 s-1.17 0.38 -1.89 0.38 c-0.97334 0 -1.7633 -0.26 -2.37 -0.78 s-0.91 -1.2067 -0.91 -2.06 c0 -1.08 0.45334 -1.8967 1.36 -2.45 s2.1866 -0.83 3.84 -0.83 l1.34 0 l0 -0.34 c0 -0.64 -0.21 -1.1433 -0.63 -1.51 s-0.97 -0.55 -1.65 -0.55 c-0.50666 0 -0.95 0.07666 -1.33 0.23 s-0.83 0.43668 -1.35 0.85002 l-1.08 -1.12 c1.0267 -0.90666 2.28 -1.3733 3.76 -1.4 z M53.06 17.259999999999998 c0 1.0267 0.68002 1.54 2.04 1.54 c0.81334 0 1.4633 -0.24334 1.95 -0.73 s0.73666 -1.19 0.75 -2.11 l0 -0.52 l-1.02 0 c-1.1733 0 -2.0866 0.15 -2.74 0.45 s-0.98 0.75666 -0.98 1.37 z M65.9 10.28 c1.2 0 2.15 0.27328 2.85 0.81994 s1.07 1.3067 1.11 2.28 l0 5.08 c0 0.48 0.02666 0.99334 0.08 1.54 l-1.6 0 c-0.04 -0.42666 -0.06 -0.90666 -0.06 -1.44 l-0.04 0 c-0.41334 0.61334 -0.89 1.0467 -1.43 1.3 s-1.17 0.38 -1.89 0.38 c-0.97334 0 -1.7633 -0.26 -2.37 -0.78 s-0.91 -1.2067 -0.91 -2.06 c0 -1.08 0.45334 -1.8967 1.36 -2.45 s2.1866 -0.83 3.84 -0.83 l1.34 0 l0 -0.34 c0 -0.64 -0.21 -1.1433 -0.63 -1.51 s-0.97 -0.55 -1.65 -0.55 c-0.50666 0 -0.95 0.07666 -1.33 0.23 s-0.83 0.43668 -1.35 0.85002 l-1.08 -1.12 c1.0267 -0.90666 2.28 -1.3733 3.76 -1.4 z M63.440000000000005 17.259999999999998 c0 1.0267 0.68002 1.54 2.04 1.54 c0.81334 0 1.4633 -0.24334 1.95 -0.73 s0.73666 -1.19 0.75 -2.11 l0 -0.52 l-1.02 0 c-1.1733 0 -2.0866 0.15 -2.74 0.45 s-0.98 0.75666 -0.98 1.37 z M77.64 10.28 c1.4 0 2.5434 0.45998 3.43 1.38 s1.3433 2.12 1.37 3.6 c0 1.48 -0.45334 2.6766 -1.36 3.59 s-2.06 1.3767 -3.46 1.39 c-0.69334 0 -1.34 -0.14666 -1.94 -0.44 s-1.0533 -0.68 -1.36 -1.16 l-0.04 0 l0 7 l-1.8 0 l0 -15.12 l1.8 0 l0 1.36 l0.04 0 c0.36 -0.50666 0.83334 -0.9 1.42 -1.18 s1.22 -0.42 1.9 -0.42 z M74.28 15.26 c0 0.98666 0.28998 1.7833 0.86998 2.39 s1.33 0.91 2.25 0.91 c0.96 0 1.7167 -0.30334 2.27 -0.91 s0.83668 -1.4033 0.85002 -2.39 c0 -0.98666 -0.28334 -1.78 -0.85 -2.38 s-1.33 -0.90666 -2.29 -0.92 c-0.94666 0 -1.7 0.31 -2.26 0.93 s-0.84 1.41 -0.84 2.37 z"></path></g></svg>